# xmcd
#
# Track frame offsets:
#	150
#	73770
#	147142
#	214962
#
# Disc length: 3778 seconds
#
# Revision: 0
# Processed by: cddbd v1.5.2PL0 Copyright (c) Steve Scherf et al.
# Submitted via: EasyCDDAExtractor 15.2.5.1
#
DISCID=3d0ec004
DTITLE=蓮緣 (2) - 取自蓮之頌
DYEAR=1428
DGENRE=佛歌
TTITLE0=般若波羅蜜多心經(演唱)  
TTITLE1=般若波羅蜜多心經(音樂)   
TTITLE2=大悲咒 (演唱)   
TTITLE3=大悲咒 (音樂)   
EXTD=
EXTT0=
EXTT1=
EXTT2=
EXTT3=
PLAYORDER=
